<svg width="24" height="25" viewBox="0 0 24 25" fill="none" xmlns="http://www.w3.org/2000/svg">
<path fill-rule="evenodd" clip-rule="evenodd" d="M16.7218 15.466L19.7396 18.4846C20.0871 18.8322 20.0871 19.394 19.7396 19.7415C19.5662 19.9148 19.3387 20.002 19.1111 20.002C18.8836 20.002 18.656 19.9148 18.4827 19.7415L15.464 16.7237C14.2604 17.6597 12.752 18.2242 11.1111 18.2242C7.19022 18.2242 4 15.034 4 11.1131C4 7.19218 7.19022 4.00195 11.1111 4.00195C15.032 4.00195 18.2222 7.19218 18.2222 11.1131C18.2222 12.754 17.6578 14.2624 16.7218 15.466ZM11.1111 5.77973C8.16979 5.77973 5.77779 8.17173 5.77779 11.1131C5.77779 14.0544 8.16979 16.4464 11.1111 16.4464C14.0525 16.4464 16.4445 14.0544 16.4445 11.1131C16.4445 8.17173 14.0525 5.77973 11.1111 5.77973Z" fill="#555F62"/>
<mask id="mask0_227_23712" style="mask-type:luminance" maskUnits="userSpaceOnUse" x="5" y="5" width="12" height="13">
<path d="M5 11.002C5 7.69295 7.691 5.00195 11 5.00195C14.309 5.00195 17 7.69295 17 11.002C17 14.311 14.309 17.002 11 17.002C7.691 17.002 5 14.311 5 11.002Z" fill="white"/>
</mask>
<g mask="url(#mask0_227_23712)">
</g>
</svg>
