
    <svg
      xmlns="http://www.w3.org/2000/svg"
      width="165"
      height="32"
      viewBox="0 0 165 32"
      fill="currentColor"
    >
      <path d="M33.742 0H34.8154V32H33.742V0Z"></path>
      <path d="M159.89 17.2487C159.89 18.7892 160.73 19.5361 161.966 19.5361H161.99C162.597 19.5361 163.32 19.3494 163.903 19.046L165 22.4304C163.857 22.8738 162.923 23.0839 161.71 23.1072C158.233 23.2473 155.946 21.24 155.946 17.2487V10.3166H152.959V6.90884H155.946V2.77755L159.913 2.35742V6.90884H164.347V10.3166H159.89V17.2487Z"></path>
      <path d="M1.78182 25.7423C1.80618 25.734 1.82692 25.7268 1.84344 25.7213C5.48366 24.3209 9.12388 21.7067 10.8973 19.9795C11.4807 19.396 11.784 18.7191 11.714 17.8555C11.714 17.6545 11.678 17.4534 11.6404 17.2438C11.6256 17.1613 11.6105 17.0776 11.5974 16.9919C10.7807 10.9934 11.574 6.60535 12.1341 4.59806C12.2274 4.22461 12.1341 4.15458 12.0407 4.1079C11.9474 4.06122 11.8307 4.1079 11.7607 4.17792C11.1307 4.92482 6.90708 11.7169 5.29699 14.5412C3.99024 16.7819 0.980059 22.2669 0.093339 24.7877C0.093339 24.8048 0.080834 24.85 0.0649784 24.9074C0.0375153 25.0067 0 25.1424 0 25.2312C0 25.6746 0.280017 26.0247 0.88672 25.9781C1.216 25.9369 1.59976 25.8049 1.78182 25.7423Z"></path>
      <path d="M24.4781 25.3245C21.4446 22.8738 17.361 21.0298 14.9809 20.3763C14.1875 20.1662 13.4641 20.2363 12.7174 20.7264C12.4841 20.8898 12.2741 21.0532 12.0174 21.2632C7.23376 24.9744 3.01017 26.4682 0.980044 27.005C0.606688 27.0984 0.583353 27.2151 0.583353 27.3318C0.583353 27.4485 0.676692 27.5185 0.770031 27.5419C1.72676 27.7286 9.75391 27.962 12.9974 27.9387C15.5876 27.9387 21.8646 27.7986 24.4781 27.2851C24.5248 27.2851 24.7815 27.2151 24.9215 27.1451C25.2948 26.935 25.4815 26.4915 25.1315 26.0014C24.8982 25.698 24.5481 25.3945 24.4315 25.3012L24.4781 25.3245Z"></path>
      <path d="M15.1871 18.6183C15.0214 18.5523 14.8609 18.4885 14.7009 18.4157L14.6775 18.369C13.8841 17.9722 13.4408 17.3887 13.2308 16.5951C12.6007 14.2144 12.1574 9.75633 12.7641 5.90513L12.7686 5.87782C12.7958 5.71181 12.8668 5.27815 13.0208 4.94816C13.2774 4.41133 13.7441 4.36464 14.1175 4.57471C14.2575 4.64473 14.4442 4.83146 14.4675 4.87814C16.2176 6.90877 19.4611 12.2538 20.7679 14.4945C22.4013 17.2954 26.2049 24.3442 26.5316 25.2778C26.5782 25.3712 26.5549 25.4879 26.4616 25.5579C26.3682 25.628 26.2749 25.6746 25.9949 25.3945C24.5248 23.9241 21.1179 21.0299 15.4942 18.7425C15.389 18.6986 15.287 18.658 15.1871 18.6183Z"></path>
      <path d="M52.7132 19.6061C50.2397 19.6061 48.1629 17.9722 48.1629 14.9146C48.1629 12.1137 50.123 10.1531 52.7832 10.1531C53.8799 10.1531 55.07 10.5732 56.0034 11.4135L58.5002 8.77601C56.7501 7.0488 54.9766 6.39526 52.7132 6.39526C48.0696 6.39526 44.196 9.19614 44.196 14.8913C44.196 20.5864 48.0696 23.3872 52.7132 23.3872C55.0933 23.3872 57.0301 22.6637 58.8969 20.8431L56.2367 18.229C55.2567 19.2093 53.9966 19.5594 52.7132 19.5594V19.6061Z"></path>
      <path
        fillRule="evenodd"
        clipRule="evenodd"
        d="M68.5225 6.5586C63.419 6.56434 60.2269 10.3433 60.2269 14.9145C60.2269 19.536 63.3538 23.2705 68.5574 23.2705C73.7611 23.2705 76.9113 19.536 76.9113 14.9145C76.9113 10.3199 73.6261 6.56431 68.5225 6.5586ZM68.5574 19.6293C65.6639 19.6293 64.1939 17.342 64.1939 14.9145C64.1939 12.5105 65.6873 10.1531 68.5574 10.1531C71.2176 10.1531 72.921 12.4871 72.921 14.9145C72.921 17.3886 71.4443 19.6293 68.5574 19.6293Z"
      ></path>
      <path d="M83.1468 10.1965V8.08875H80.257V2.49785L76.3134 2.91797V8.08875H74.2188V10.1965H76.3134V22.2439H80.257V10.1965H83.1468Z"></path>
      <path d="M102.198 6.56437C97.0671 6.56437 93.9637 10.3199 93.9637 14.9146C93.9637 19.536 97.0906 23.2705 102.294 23.2705C105.059 23.2705 106.819 22.3835 108.175 21.0563L106.151 18.9122C105.261 19.7192 104.089 19.8227 103.18 19.8227C100.997 19.8227 99.593 18.4807 99.3796 16.5338H108.556C108.604 16.265 108.619 16.0253 108.619 15.722C108.586 10.2482 105.267 6.56437 102.198 6.56437ZM99.3984 14.5058C99.7852 12.5589 101.247 10.9098 103.289 10.9098C105.223 10.9098 106.735 12.4655 106.817 14.5058H99.3984Z"></path>
      <path d="M118.557 6.56437C113.426 6.56437 110.322 10.3199 110.322 14.9146C110.322 19.536 113.449 23.2705 118.652 23.2705C121.418 23.2705 123.178 22.3835 124.534 21.0563L122.51 18.9122C121.62 19.7192 120.448 19.8227 119.539 19.8227C117.356 19.8227 115.952 18.4807 115.739 16.5338H124.915C124.963 16.265 124.978 16.0253 124.978 15.722C124.945 10.2482 121.626 6.56437 118.557 6.56437ZM115.757 14.5058C116.143 12.5589 117.606 10.9098 119.648 10.9098C121.582 10.9098 123.094 12.4655 123.176 14.5058H115.757Z"></path>
      <path d="M132.746 14.9412C132.746 12.9921 134.213 11.3504 136.295 11.3504C137.545 11.3504 138.49 11.8473 139.17 12.8088L141.72 10.3986C140.427 8.67262 138.637 7.95186 136.367 7.95186C132.806 7.95186 130.242 10.5156 130.242 14.9146C130.242 19.3137 132.823 21.8312 136.367 21.8312C138.849 21.8312 140.521 20.9939 141.795 19.027L139.245 16.7326C138.5 17.6707 137.545 18.1135 136.295 18.1135C134.213 18.1135 132.746 16.4718 132.746 14.5227V14.9412Z"></path>
      <path d="M50.7802 25.3778H40.5134V27.7986H53.2703L56.4305 25.0484L55.1104 24.0366L52.027 25.8636L50.7802 25.3778Z"></path>
      <path d="M35.6935 25.3778H46.2672V27.7986H33.5102L30.3501 25.0484L31.6702 24.0366L34.7536 25.8636L35.6935 25.3778Z"></path>
    </svg>
  